<svg xmlns="http://www.w3.org/2000/svg" xmlns:xlink="http://www.w3.org/1999/xlink" width="500" zoomAndPan="magnify" viewBox="0 0 375 374.999991" height="500" preserveAspectRatio="xMidYMid meet" version="1.0"><defs><clipPath id="3df0e3e191"><path d="M 25.65625 25.65625 L 155 25.65625 L 155 155 L 25.65625 155 Z M 25.65625 25.65625 " clip-rule="nonzero"/></clipPath><clipPath id="cd8d76abb5"><path d="M 219 25.65625 L 348.925781 25.65625 L 348.925781 155 L 219 155 Z M 219 25.65625 " clip-rule="nonzero"/></clipPath><clipPath id="5981a2b22a"><path d="M 25.65625 219 L 155 219 L 155 348.925781 L 25.65625 348.925781 Z M 25.65625 219 " clip-rule="nonzero"/></clipPath><clipPath id="229d8b0f9a"><path d="M 219 219 L 348.925781 219 L 348.925781 348.925781 L 219 348.925781 Z M 219 219 " clip-rule="nonzero"/></clipPath><clipPath id="97e5ea9948"><path d="M 94.597656 114.128906 L 280.894531 114.128906 L 280.894531 260.871094 L 94.597656 260.871094 Z M 94.597656 114.128906 " clip-rule="nonzero"/></clipPath><clipPath id="ea428e1e26"><path d="M 121.597656 114.128906 L 253.402344 114.128906 C 260.5625 114.128906 267.429688 116.972656 272.492188 122.035156 C 277.558594 127.101562 280.402344 133.96875 280.402344 141.128906 L 280.402344 233.871094 C 280.402344 241.03125 277.558594 247.898438 272.492188 252.964844 C 267.429688 258.027344 260.5625 260.871094 253.402344 260.871094 L 121.597656 260.871094 C 114.4375 260.871094 107.570312 258.027344 102.507812 252.964844 C 97.441406 247.898438 94.597656 241.03125 94.597656 233.871094 L 94.597656 141.128906 C 94.597656 133.96875 97.441406 127.101562 102.507812 122.035156 C 107.570312 116.972656 114.4375 114.128906 121.597656 114.128906 Z M 121.597656 114.128906 " clip-rule="nonzero"/></clipPath><clipPath id="509b672e24"><path d="M 97.679688 104.542969 L 277.679688 104.542969 L 277.679688 252.292969 L 97.679688 252.292969 Z M 97.679688 104.542969 " clip-rule="nonzero"/></clipPath></defs><g clip-path="url(#3df0e3e191)"><path fill="#040606" d="M 41.8125 154.972656 C 50.738281 154.972656 57.96875 147.714844 57.96875 138.816406 L 57.96875 74.15625 C 57.96875 65.230469 65.230469 58 74.15625 58 L 138.789062 58 C 147.714844 58 154.945312 50.738281 154.945312 41.8125 C 154.945312 32.917969 147.714844 25.65625 138.789062 25.65625 L 74.15625 25.65625 C 47.410156 25.65625 25.65625 47.4375 25.65625 74.15625 L 25.65625 138.816406 C 25.65625 147.714844 32.917969 154.972656 41.8125 154.972656 " fill-opacity="1" fill-rule="nonzero"/></g><g clip-path="url(#cd8d76abb5)"><path fill="#040606" d="M 300.449219 25.65625 L 235.792969 25.65625 C 226.867188 25.65625 219.632812 32.917969 219.632812 41.8125 C 219.632812 50.738281 226.867188 57.96875 235.792969 57.96875 L 300.449219 57.96875 C 309.347656 57.96875 316.578125 65.230469 316.578125 74.15625 L 316.578125 138.789062 C 316.578125 147.714844 323.871094 154.945312 332.765625 154.945312 C 341.664062 154.945312 348.925781 147.714844 348.925781 138.789062 L 348.925781 74.15625 C 348.925781 47.410156 327.140625 25.65625 300.449219 25.65625 " fill-opacity="1" fill-rule="nonzero"/></g><g clip-path="url(#5981a2b22a)"><path fill="#040606" d="M 138.816406 316.609375 L 74.15625 316.609375 C 65.230469 316.609375 58 309.347656 58 300.421875 L 58 235.792969 C 58 226.867188 50.738281 219.632812 41.8125 219.632812 C 32.917969 219.632812 25.65625 226.867188 25.65625 235.792969 L 25.65625 300.421875 C 25.65625 327.167969 47.410156 348.925781 74.15625 348.925781 L 138.816406 348.925781 C 147.714844 348.925781 154.972656 341.664062 154.972656 332.765625 C 154.972656 323.839844 147.714844 316.609375 138.816406 316.609375 " fill-opacity="1" fill-rule="nonzero"/></g><g clip-path="url(#229d8b0f9a)"><path fill="#040606" d="M 332.765625 219.632812 C 323.871094 219.632812 316.578125 226.867188 316.578125 235.761719 L 316.578125 300.421875 C 316.578125 309.347656 309.347656 316.609375 300.449219 316.609375 L 235.761719 316.609375 C 226.867188 316.609375 219.632812 323.839844 219.632812 332.765625 C 219.632812 341.664062 226.867188 348.925781 235.761719 348.925781 L 300.449219 348.925781 C 327.140625 348.925781 348.925781 327.167969 348.925781 300.421875 L 348.925781 235.761719 C 348.925781 226.867188 341.664062 219.632812 332.765625 219.632812 " fill-opacity="1" fill-rule="nonzero"/></g><path fill="#040606" d="M 251.949219 187.289062 C 251.949219 222.992188 222.992188 251.949219 187.289062 251.949219 C 151.585938 251.949219 122.628906 222.992188 122.628906 187.289062 C 122.628906 151.585938 151.585938 122.628906 187.289062 122.628906 C 222.992188 122.628906 251.949219 151.585938 251.949219 187.289062 " fill-opacity="1" fill-rule="nonzero"/><g clip-path="url(#97e5ea9948)"><g clip-path="url(#ea428e1e26)"><path fill="#ffffff" d="M 94.597656 114.128906 L 280.320312 114.128906 L 280.320312 260.871094 L 94.597656 260.871094 Z M 94.597656 114.128906 " fill-opacity="1" fill-rule="nonzero"/></g></g><g clip-path="url(#509b672e24)"><path fill="#000000" d="M 251.96875 123.808594 L 225.566406 123.808594 L 217.753906 114.109375 C 212.847656 108.03125 205.554688 104.542969 197.730469 104.542969 L 177.625 104.542969 C 169.816406 104.542969 162.507812 108.03125 157.613281 114.109375 L 149.804688 123.808594 L 123.386719 123.808594 C 109.230469 123.808594 97.703125 135.332031 97.703125 149.484375 L 97.703125 226.617188 C 97.703125 240.78125 109.230469 252.292969 123.386719 252.292969 L 251.96875 252.292969 C 266.136719 252.292969 277.65625 240.769531 277.65625 226.617188 L 277.65625 149.484375 C 277.65625 135.332031 266.125 123.808594 251.96875 123.808594 Z M 264.804688 226.617188 C 264.804688 233.695312 259.046875 239.449219 251.96875 239.449219 L 123.386719 239.449219 C 116.308594 239.449219 110.550781 233.695312 110.550781 226.617188 L 110.550781 149.484375 C 110.550781 142.40625 116.308594 136.652344 123.386719 136.652344 L 152.863281 136.652344 C 154.808594 136.652344 156.640625 135.765625 157.867188 134.253906 L 167.621094 122.179688 C 170.066406 119.132812 173.714844 117.394531 177.625 117.394531 L 197.742188 117.394531 C 201.65625 117.394531 205.300781 119.132812 207.75 122.179688 L 217.492188 134.265625 C 218.714844 135.777344 220.550781 136.664062 222.492188 136.664062 L 251.96875 136.664062 C 259.046875 136.664062 264.804688 142.421875 264.804688 149.496094 Z M 187.679688 143.089844 C 162.867188 143.089844 142.691406 163.261719 142.691406 188.058594 C 142.691406 212.855469 162.867188 233.023438 187.679688 233.023438 C 212.488281 233.023438 232.667969 212.855469 232.667969 188.058594 C 232.667969 163.261719 212.488281 143.089844 187.679688 143.089844 Z M 187.679688 220.167969 C 169.960938 220.167969 155.539062 205.753906 155.539062 188.042969 C 155.539062 170.335938 169.960938 155.933594 187.679688 155.933594 C 205.398438 155.933594 219.816406 170.347656 219.816406 188.058594 C 219.816406 205.765625 205.398438 220.167969 187.679688 220.167969 Z M 187.679688 220.167969 " fill-opacity="1" fill-rule="nonzero"/></g></svg>