<svg xmlns="http://www.w3.org/2000/svg" xmlns:xlink="http://www.w3.org/1999/xlink" width="500" zoomAndPan="magnify" viewBox="0 0 375 374.999991" height="500" preserveAspectRatio="xMidYMid meet" version="1.0"><rect x="-37.5" width="450" fill="#ffffff" y="-37.499999" height="449.999989" fill-opacity="1"/><rect x="-37.5" width="450" fill="#ffffff" y="-37.499999" height="449.999989" fill-opacity="1"/><path fill="#000000" d="M 187.445312 0.0898438 C 291.019531 0.0898438 374.980469 84.050781 374.980469 187.625 C 374.980469 291.199219 291.019531 375.160156 187.445312 375.160156 C 83.875 375.160156 -0.0898438 291.199219 -0.0898438 187.625 C -0.0898438 84.050781 83.875 0.0898438 187.445312 0.0898438 Z M 187.445312 73.996094 C 201.660156 73.996094 213.203125 85.523438 213.203125 99.753906 C 213.203125 113.988281 201.679688 125.515625 187.445312 125.515625 C 173.230469 125.515625 161.6875 113.988281 161.6875 99.753906 C 161.6875 85.539062 173.214844 73.996094 187.445312 73.996094 Z M 164.035156 144.785156 L 210.875 144.785156 L 210.875 263.917969 L 229.605469 263.917969 L 229.605469 301.238281 L 145.320312 301.238281 L 145.320312 263.917969 L 164.035156 263.917969 L 164.035156 164.339844 L 145.320312 164.339844 L 145.320312 144.785156 Z M 187.445312 18.175781 C 93.875 18.175781 18.015625 94.019531 18.015625 187.609375 C 18.015625 281.195312 93.859375 357.039062 187.445312 357.039062 C 281.035156 357.039062 356.878906 281.179688 356.878906 187.609375 C 356.878906 94.019531 281.035156 18.175781 187.445312 18.175781 Z M 187.445312 18.175781 " fill-opacity="1" fill-rule="nonzero"/></svg>